<?xml version="1.0" encoding="utf-8"?>
<!-- Uploaded to: SVG Repo, www.svgrepo.com, Generator: SVG Repo Mixer Tools -->
<svg width="800px" height="800px" viewBox="-42.5 0 310.5 310.5" xmlns="http://www.w3.org/2000/svg">
  <g id="lamp" transform="translate(-521.713 -3050.916)">
    <path id="Path_18" data-name="Path 18" d="M714.116,3083.918a111.848,111.848,0,0,0-79.645-33c-62.1,0-112.758,50.542-112.758,112.668a112.287,112.287,0,0,0,55.269,97.068v68.041a32.735,32.735,0,0,0,32.458,32.723h50.28c17.648,0,32.262-14.7,32.262-32.723v-68.1a112.649,112.649,0,0,0,22.134-176.675Zm-54.4,253.5H609.44c-4.32,0-8.458-4.14-8.458-8.723v-19.277h67v19.277C667.982,3333.276,663.935,3337.416,659.72,3337.416Zm14.738-94.89a11.9,11.9,0,0,0-6.476,10.848v32.042h-21v-78h29.6a12,12,0,1,0,0-24H592.99a12,12,0,1,0,0,24h29.992v78h-22v-31.989a11.894,11.894,0,0,0-6.481-10.849c-30.022-14.915-48.551-45.183-48.551-78.994a88.5,88.5,0,0,1,177,0C722.947,3197.355,704.461,3227.6,674.458,3242.526Z" fill="#453c5c"/>
  </g>
</svg>